HIERARCHY
ROOT Hips
{
  OFFSET 5.84602e-005 68.8428 3.50346
  CHANNELS 6 Xposition Yposition Zposition Zrotation Xrotation Yrotation
  JOINT Spine
  {
    OFFSET 0 8.597 -4.6522
    CHANNELS 3 Zrotation Xrotation Yrotation
    JOINT Spine1
    {
      OFFSET 0 7.8454 0.4098
      CHANNELS 3 Zrotation Xrotation Yrotation
      JOINT Spine2
      {
        OFFSET 0 9.7078 -2.1609
        CHANNELS 3 Zrotation Xrotation Yrotation
        JOINT Neck
        {
          OFFSET 0 21.8761 -0.4549
          CHANNELS 3 Zrotation Xrotation Yrotation
          JOINT Head
          {
            OFFSET 0 12.3537 3.3602
            CHANNELS 3 Zrotation Xrotation Yrotation
            End Site
            {
              OFFSET 0.0001 18.9506 0.5657
            }
          }
        }
        JOINT LeftShoulder
        {
          OFFSET 2.2086 21.1115 7.2329
          CHANNELS 3 Zrotation Xrotation Yrotation
          JOINT LeftArm
          {
            OFFSET 13.1193 3.0282 -4.8998
            CHANNELS 3 Zrotation Xrotation Yrotation
            JOINT LeftForeArm
            {
              OFFSET 27.4081 -0.0973053 -0.2375
              CHANNELS 3 Zrotation Xrotation Yrotation
              JOINT LeftHand
              {
                OFFSET 22.8641 0.0662994 -0.1369
                CHANNELS 3 Zrotation Xrotation Yrotation
                JOINT LeftHandIndex1
                {
                  OFFSET 8.8614 0.775009 2.4612
                  CHANNELS 3 Zrotation Xrotation Yrotation
                  JOINT LeftHandIndex2
                  {
                    OFFSET 3.3146 -0.808304 0.5841
                    CHANNELS 3 Zrotation Xrotation Yrotation
                    JOINT LeftHandIndex3
                    {
                      OFFSET 2.2628 -0.552002 0.3989
                      CHANNELS 3 Zrotation Xrotation Yrotation
                      End Site
                      {
                        OFFSET 1.6102 -0.4807 0.2612
                      }
                    }
                  }
                }
                JOINT LeftHandMiddle1
                {
                  OFFSET 8.9937 0.895004 0.2143
                  CHANNELS 3 Zrotation Xrotation Yrotation
                  JOINT LeftHandMiddle2
                  {
                    OFFSET 4.0984 0.0113983 -0.0242
                    CHANNELS 3 Zrotation Xrotation Yrotation
                    JOINT LeftHandMiddle3
                    {
                      OFFSET 2.2716 0.00689697 -0.0138001
                      CHANNELS 3 Zrotation Xrotation Yrotation
                      End Site
                      {
                        OFFSET 2.0404 -0.1441 0.0027
                      }
                    }
                  }
                }
                JOINT LeftHandRing1
                {
                  OFFSET 8.5234 0.597198 -2.0164
                  CHANNELS 3 Zrotation Xrotation Yrotation
                  JOINT LeftHandRing2
                  {
                    OFFSET 3.7188 -0.188293 -0.2328
                    CHANNELS 3 Zrotation Xrotation Yrotation
                    JOINT LeftHandRing3
                    {
                      OFFSET 2.1191 -0.106598 -0.1332
                      CHANNELS 3 Zrotation Xrotation Yrotation
                      End Site
                      {
                        OFFSET 1.8737 -0.2304 -0.0886
                      }
                    }
                  }
                }
                JOINT LeftHandPinky1
                {
                  OFFSET 7.9094 -0.601089 -3.4825
                  CHANNELS 3 Zrotation Xrotation Yrotation
                  JOINT LeftHandPinky2
                  {
                    OFFSET 2.2874 -0.477005 -0.6314
                    CHANNELS 3 Zrotation Xrotation Yrotation
                    JOINT LeftHandPinky3
                    {
                      OFFSET 1.6774 -0.349396 -0.4633
                      CHANNELS 3 Zrotation Xrotation Yrotation
                      End Site
                      {
                        OFFSET 1.4888 -0.4091 -0.3416
                      }
                    }
                  }
                }
                JOINT LeftHandThumb1
                {
                  OFFSET 1.833 -1.3875 1.3896
                  CHANNELS 3 Zrotation Xrotation Yrotation
                  JOINT LeftHandThumb2
                  {
                    OFFSET 3.4129 -1.121 2.5732
                    CHANNELS 3 Zrotation Xrotation Yrotation
                    JOINT LeftHandThumb3
                    {
                      OFFSET 2.2474 -0.804199 1.6192
                      CHANNELS 3 Zrotation Xrotation Yrotation
                      End Site
                      {
                        OFFSET 1.6527 -0.5689 1.1317
                      }
                    }
                  }
                }
              }
            }
          }
        }
        JOINT RightShoulder
        {
          OFFSET -2.2086 21.1115 7.2329
          CHANNELS 3 Zrotation Xrotation Yrotation
          JOINT RightArm
          {
            OFFSET -13.1216 3.0287 -4.9007
            CHANNELS 3 Zrotation Xrotation Yrotation
            JOINT RightForeArm
            {
              OFFSET -27.4081 -0.0973053 -0.2375
              CHANNELS 3 Zrotation Xrotation Yrotation
              JOINT RightHand
              {
                OFFSET -22.8641 0.0664063 -0.1369
                CHANNELS 3 Zrotation Xrotation Yrotation
                JOINT RightHandIndex1
                {
                  OFFSET -8.8614 0.774994 2.4612
                  CHANNELS 3 Zrotation Xrotation Yrotation
                  JOINT RightHandIndex2
                  {
                    OFFSET -3.3146 -0.808304 0.5841
                    CHANNELS 3 Zrotation Xrotation Yrotation
                    JOINT RightHandIndex3
                    {
                      OFFSET -2.2628 -0.552002 0.3989
                      CHANNELS 3 Zrotation Xrotation Yrotation
                      End Site
                      {
                        OFFSET -1.6102 -0.4807 0.2612
                      }
                    }
                  }
                }
                JOINT RightHandMiddle1
                {
                  OFFSET -8.9937 0.894989 0.2143
                  CHANNELS 3 Zrotation Xrotation Yrotation
                  JOINT RightHandMiddle2
                  {
                    OFFSET -4.0984 0.0113983 -0.0242
                    CHANNELS 3 Zrotation Xrotation Yrotation
                    JOINT RightHandMiddle3
                    {
                      OFFSET -2.2716 0.00691223 -0.0138001
                      CHANNELS 3 Zrotation Xrotation Yrotation
                      End Site
                      {
                        OFFSET -2.0404 -0.1441 0.0027
                      }
                    }
                  }
                }
                JOINT RightHandRing1
                {
                  OFFSET -8.5234 0.597198 -2.0164
                  CHANNELS 3 Zrotation Xrotation Yrotation
                  JOINT RightHandRing2
                  {
                    OFFSET -3.7188 -0.188309 -0.2328
                    CHANNELS 3 Zrotation Xrotation Yrotation
                    JOINT RightHandRing3
                    {
                      OFFSET -2.1191 -0.106598 -0.1332
                      CHANNELS 3 Zrotation Xrotation Yrotation
                      End Site
                      {
                        OFFSET -1.8737 -0.2304 -0.0886
                      }
                    }
                  }
                }
                JOINT RightHandPinky1
                {
                  OFFSET -7.9094 -0.601105 -3.4825
                  CHANNELS 3 Zrotation Xrotation Yrotation
                  JOINT RightHandPinky2
                  {
                    OFFSET -2.2874 -0.477005 -0.6314
                    CHANNELS 3 Zrotation Xrotation Yrotation
                    JOINT RightHandPinky3
                    {
                      OFFSET -1.6774 -0.349396 -0.4633
                      CHANNELS 3 Zrotation Xrotation Yrotation
                      End Site
                      {
                        OFFSET -1.4888 -0.4091 -0.3416
                      }
                    }
                  }
                }
                JOINT RightHandThumb1
                {
                  OFFSET -1.833 -1.38751 1.3896
                  CHANNELS 3 Zrotation Xrotation Yrotation
                  JOINT RightHandThumb2
                  {
                    OFFSET -3.41299 -1.12099 2.5732
                    CHANNELS 3 Zrotation Xrotation Yrotation
                    JOINT RightHandThumb3
                    {
                      OFFSET -2.24741 -0.804108 1.6192
                      CHANNELS 3 Zrotation Xrotation Yrotation
                      End Site
                      {
                        OFFSET -1.6527 -0.5689 1.1317
                      }
                    }
                  }
                }
              }
            }
          }
        }
      }
    }
  }
  JOINT RightUpLeg
  {
    OFFSET -9.1966 3.8861 -0.7581
    CHANNELS 3 Zrotation Xrotation Yrotation
    JOINT RightLeg
    {
      OFFSET -0.7359 -41.0265 0
      CHANNELS 3 Zrotation Xrotation Yrotation
      JOINT RightFoot
      {
        OFFSET 0 -40.2855 0
        CHANNELS 3 Zrotation Xrotation Yrotation
        JOINT RightToeBase
        {
          OFFSET 0 -5.6122 11.7359
          CHANNELS 3 Zrotation Xrotation Yrotation
          End Site
          {
            OFFSET 0 0 7.8731
          }
        }
      }
    }
  }
  JOINT LeftUpLeg
  {
    OFFSET 9.1965 3.8864 -0.7581
    CHANNELS 3 Zrotation Xrotation Yrotation
    JOINT LeftLeg
    {
      OFFSET 0.7359 -41.0268 0
      CHANNELS 3 Zrotation Xrotation Yrotation
      JOINT LeftFoot
      {
        OFFSET 0 -40.2855 0
        CHANNELS 3 Zrotation Xrotation Yrotation
        JOINT LeftToeBase
        {
          OFFSET 0 -5.6122 11.7359
          CHANNELS 3 Zrotation Xrotation Yrotation
          End Site
          {
            OFFSET 0 0 7.8731
          }
        }
      }
    }
  }
}
MOTION
Frames:	6
Frame Time:	0.0333333
0.492516 -6.67929 75.5276 -90.3963 -89.7304 89.3514 0.363387 -2.66836 -0.126102 0.722063 -5.33744 -0.235623 0.722063 -5.33746 -0.235622 1.5151e-005 17.5891 -6.96877e-006 180 -87.8659 180 32.2286 -39.7555 17.0433 -48.9412 -8.61684 -44.0869 -6.99751 -24.2572 -88.7703 -9.65487 -11.0712 22.8183 -6.36111e-015 -3.57812e-015 -5.96354e-016 -1.17523e-006 9.486e-007 7.2228e-007 -1.62763e-031 -5.86415e-015 -1.59028e-015 -6.36111e-015 -3.57812e-015 -5.96354e-016 -0.0146025 -9.27305e-005 9.75084e-007 -3.18055e-015 -1.13307e-014 -2.78299e-015 -6.36111e-015 -3.57812e-015 -5.96354e-016 -0.0187462 -0.00117441 6.21173e-005 -1.0621e-031 -2.78299e-015 -2.18663e-015 -6.36111e-015 -3.57812e-015 -5.96354e-016 -0.0122752 -0.00324725 0.000672643 3.41388e-032 -9.83984e-015 1.98785e-016 -6.36111e-015 -3.57812e-015 -5.96354e-016 -1.17523e-006 9.486e-007 7.2228e-007 -1.62763e-031 -5.86415e-015 -1.59028e-015 -32.3541 -39.8714 -16.5321 48.9325 -8.52149 43.9734 7.03619 -24.263 89.2934 9.02102 -10.9377 -23.5042 1.14204e-006 9.99487e-007 -6.99138e-007 1.14204e-006 9.99487e-007 -6.99138e-007 2.85109e-007 4.28306e-006 -6.94886e-007 1.14204e-006 9.99487e-007 -6.99138e-007 0.0149601 -9.4131e-005 -2.86554e-007 2.85383e-007 4.28296e-006 -6.95445e-007 1.14204e-006 9.99487e-007 -6.99138e-007 0.0189649 -0.00118884 -5.62364e-005 2.85448e-007 4.28292e-006 -6.95598e-007 1.14204e-006 9.99487e-007 -6.99138e-007 0.0122655 -0.00324224 -0.000672612 2.8529e-007 4.28292e-006 -6.95364e-007 1.14204e-006 9.99487e-007 -6.99138e-007 1.14204e-006 9.99487e-007 -6.99138e-007 2.85109e-007 4.28306e-006 -6.94886e-007 -2.54154 -0.442429 -3.90883 -152.605 79.0325 149.131 -5.20786 54.9184 -6.23723 -1.07471e-006 -1.39585e-007 -6.78468e-007 4.42383 -2.37925 3.90074 150.39 79.9688 -147.795 6.80563 54.3938 5.03927 8.61731e-007 -9.86196e-008 -1.45631e-006 
0.492516 -6.67929 75.5276 -90.3963 -89.7304 89.3514 0.363171 -2.76156 -0.126719 0.721477 -5.52383 -0.236301 0.721477 -5.52385 -0.236301 1.13656e-005 17.0549 -4.86516e-006 -1.96488e-005 -89.6262 -1.97016e-005 31.91 -39.5577 16.651 -48.9412 -8.61685 -44.0869 -6.99749 -24.2572 -88.7703 -9.65487 -11.0712 22.8183 6.36111e-015 -9.93923e-017 3.57812e-015 3.18055e-015 1.03368e-014 2.78299e-015 6.36111e-015 6.85807e-015 2.18663e-015 6.36111e-015 -9.93923e-017 3.57812e-015 -0.0146213 -8.98247e-005 -7.70723e-006 -3.18055e-015 -4.87022e-015 -7.95139e-016 6.36111e-015 -9.93923e-017 3.57812e-015 -0.018748 -0.00117577 6.77065e-005 -3.18055e-015 9.93923e-015 2.5842e-015 6.36111e-015 -9.93923e-017 3.57812e-015 -0.0122865 -0.00325058 0.000687204 9.40888e-008 -2.3505e-006 8.23234e-007 6.36111e-015 -9.93923e-017 3.57812e-015 3.18055e-015 1.03368e-014 2.78299e-015 6.36111e-015 6.85807e-015 2.18663e-015 -32.0355 -39.6714 -16.1402 48.9325 -8.5215 43.9734 7.03619 -24.263 89.2934 9.02103 -10.9377 -23.5042 3.18055e-015 -1.5704e-014 5.76476e-015 -1.14215e-006 -9.98392e-007 6.98999e-007 -3.13894e-006 1.28591e-006 1.40841e-006 3.18055e-015 -1.5704e-014 5.76476e-015 0.0150037 -8.83969e-005 4.19265e-007 -3.1388e-006 1.2861e-006 1.40824e-006 3.18055e-015 -1.5704e-014 5.76476e-015 0.0190231 -0.00118836 -5.79727e-005 -3.13875e-006 1.28614e-006 1.40823e-006 3.18055e-015 -1.5704e-014 5.76476e-015 0.0122645 -0.00324043 -0.000677665 -3.13879e-006 1.28602e-006 1.40835e-006 3.18055e-015 -1.5704e-014 5.76476e-015 -1.14215e-006 -9.98392e-007 6.98999e-007 -3.13894e-006 1.28591e-006 1.40841e-006 -2.54154 -0.442429 -3.90883 -152.605 79.0325 149.131 -5.20786 54.9184 -6.23723 -1.07471e-006 -1.39585e-007 -6.78468e-007 4.42383 -2.37925 3.90074 150.39 79.9688 -147.795 6.80563 54.3938 5.03927 8.61731e-007 -9.86196e-008 -1.45631e-006 
0.492516 -6.67929 75.5276 -90.3963 -89.7304 89.3514 0.362936 -2.85488 -0.127333 0.720854 -5.71046 -0.236972 0.720853 -5.71049 -0.236971 3.9578e-006 16.5223 -2.81571e-006 -4.31538e-006 -87.104 -4.39676e-006 31.5939 -39.3582 16.2611 -48.9412 -8.61684 -44.0869 -6.99751 -24.2572 -88.7702 -9.65487 -11.0712 22.8183 1.17541e-006 -9.46367e-007 -7.22122e-007 1.17541e-006 -9.46367e-007 -7.22122e-007 1.17541e-006 -9.46367e-007 -7.22122e-007 1.17541e-006 -9.46367e-007 -7.22122e-007 -0.0146162 -8.54891e-005 -5.59363e-006 1.17545e-006 -9.46274e-007 -7.22244e-007 1.17541e-006 -9.46367e-007 -7.22122e-007 -0.0187556 -0.00117847 4.95803e-005 1.17546e-006 -9.46246e-007 -7.22289e-007 1.17541e-006 -9.46367e-007 -7.22122e-007 -0.0122777 -0.00325158 0.000678374 1.17542e-006 -9.46287e-007 -7.22259e-007 1.17541e-006 -9.46367e-007 -7.22122e-007 1.17541e-006 -9.46367e-007 -7.22122e-007 1.17541e-006 -9.46367e-007 -7.22122e-007 -31.7194 -39.4696 -15.7508 48.9325 -8.52149 43.9734 7.03619 -24.263 89.2934 9.02105 -10.9377 -23.5042 -3.18055e-015 -1.963e-014 7.95139e-016 -6.36111e-015 -2.18663e-015 -7.95139e-016 1.14228e-006 9.97277e-007 -6.9886e-007 -3.18055e-015 -1.963e-014 7.95139e-016 0.0149866 -8.73073e-005 4.69208e-006 1.14232e-006 9.97185e-007 -6.98991e-007 -3.18055e-015 -1.963e-014 7.95139e-016 0.0189746 -0.00119171 -5.49688e-005 1.14233e-006 9.97158e-007 -6.99037e-007 -3.18055e-015 -1.963e-014 7.95139e-016 0.012257 -0.0032388 -0.000668494 1.14229e-006 9.97199e-007 -6.99001e-007 -3.18055e-015 -1.963e-014 7.95139e-016 -6.36111e-015 -2.18663e-015 -7.95139e-016 1.14228e-006 9.97277e-007 -6.9886e-007 -2.54154 -0.442429 -3.90883 -152.605 79.0325 149.131 -5.20786 54.9184 -6.23723 -1.07471e-006 -1.39585e-007 -6.78468e-007 4.42383 -2.37925 3.90074 150.39 79.9688 -147.795 6.80563 54.3938 5.03927 8.61731e-007 -9.86196e-008 -1.45631e-006 
0.492516 -6.67929 75.5276 -90.3963 -89.7304 89.3514 0.362677 -2.94825 -0.127938 0.720184 -5.89722 -0.237632 0.720185 -5.89725 -0.237631 8.13327e-006 15.9886 -2.35438e-006 2.61352e-006 -84.5702 2.82514e-006 31.2805 -39.1571 15.8738 -48.9412 -8.61685 -44.0869 -6.9975 -24.2572 -88.7702 -9.65488 -11.0712 22.8183 -1.17551e-006 9.45223e-007 7.22042e-007 -1.89045e-006 -2.35102e-006 6.9021e-007 -6.36111e-015 -1.78906e-015 5.96354e-016 -1.17551e-006 9.45223e-007 7.22042e-007 -0.0146093 -8.83844e-005 -4.84327e-007 -1.27222e-014 -2.88238e-015 -9.93923e-016 -1.17551e-006 9.45223e-007 7.22042e-007 -0.018764 -0.00117878 5.87052e-005 4.39666e-031 7.45443e-015 -3.37934e-015 -1.17551e-006 9.45223e-007 7.22042e-007 -0.0122821 -0.00324944 0.000680329 -6.36111e-015 2.18663e-015 -3.97569e-016 -1.17551e-006 9.45223e-007 7.22042e-007 -1.89045e-006 -2.35102e-006 6.9021e-007 -6.36111e-015 -1.78906e-015 5.96354e-016 -31.4061 -39.2662 -15.3639 48.9325 -8.52151 43.9734 7.03619 -24.263 89.2934 9.02104 -10.9377 -23.5042 2.78698e-006 1.03551e-006 -7.89674e-007 3.13469e-006 -1.28867e-006 -1.42014e-006 1.14241e-006 9.96142e-007 -6.98721e-007 2.78698e-006 1.03551e-006 -7.89674e-007 0.0149879 -9.17402e-005 1.12354e-006 1.48859e-006 -1.32821e-006 -1.32902e-006 2.78698e-006 1.03551e-006 -7.89674e-007 0.0189897 -0.00119119 -5.75581e-005 1.14246e-006 9.96023e-007 -6.98898e-007 2.78698e-006 1.03551e-006 -7.89674e-007 0.0122165 -0.00323891 -0.00067504 1.14242e-006 9.96064e-007 -6.98862e-007 2.78698e-006 1.03551e-006 -7.89674e-007 3.13469e-006 -1.28867e-006 -1.42014e-006 1.14241e-006 9.96142e-007 -6.98721e-007 -2.54154 -0.442429 -3.90883 -152.605 79.0325 149.131 -5.20786 54.9184 -6.23723 -1.07471e-006 -1.39585e-007 -6.78468e-007 4.42383 -2.37925 3.90074 150.39 79.9688 -147.795 6.80563 54.3938 5.03927 8.61731e-007 -9.86196e-008 -1.45631e-006 
0.492516 -6.67929 75.5276 -90.3963 -89.7304 89.3514 0.362399 -3.0417 -0.128538 0.719477 -6.08418 -0.238283 0.719477 -6.08418 -0.238283 -8.0918e-006 15.455 2.94631e-006 -4.41278e-007 -82.0268 -7.76337e-007 30.9697 -38.9542 15.4889 -48.9412 -8.61684 -44.0869 -6.9975 -24.2572 -88.7702 -9.65487 -11.0712 22.8183 2.81437e-006 -6.12749e-006 -2.19171e-006 -7.12499e-007 -3.29531e-006 -2.58243e-008 -7.12499e-007 -3.29531e-006 -2.58243e-008 2.81437e-006 -6.12749e-006 -2.19171e-006 -0.0146018 -9.56152e-005 -2.26448e-006 -7.12271e-007 -3.2953e-006 -2.62436e-008 2.81437e-006 -6.12749e-006 -2.19171e-006 -0.0187495 -0.00117694 6.34165e-005 -7.8476e-007 -9.84765e-007 -9.0057e-007 2.81437e-006 -6.12749e-006 -2.19171e-006 -0.0122627 -0.00325127 0.00067548 -7.12328e-007 -3.29525e-006 -2.61673e-008 2.81437e-006 -6.12749e-006 -2.19171e-006 -7.12499e-007 -3.29531e-006 -2.58243e-008 -7.12499e-007 -3.29531e-006 -2.58243e-008 -31.0954 -39.0611 -14.9795 48.9325 -8.52149 43.9734 7.03619 -24.263 89.2934 9.02103 -10.9377 -23.5042 -6.79328e-032 -9.79014e-015 -3.97569e-016 -3.18055e-015 -8.44835e-015 4.07509e-015 -3.18055e-015 -1.21756e-014 2.18663e-015 -6.79328e-032 -9.79014e-015 -3.97569e-016 0.014978 -9.67602e-005 2.58812e-006 -6.36111e-015 -1.01877e-014 -1.88845e-015 -6.79328e-032 -9.79014e-015 -3.97569e-016 0.0189846 -0.00118345 -6.09537e-005 2.17247e-032 6.95746e-016 -1.78906e-015 -6.79328e-032 -9.79014e-015 -3.97569e-016 0.0122439 -0.0032374 -0.000666752 3.18055e-015 -3.13086e-015 1.68967e-015 -6.79328e-032 -9.79014e-015 -3.97569e-016 -3.18055e-015 -8.44835e-015 4.07509e-015 -3.18055e-015 -1.21756e-014 2.18663e-015 -2.54154 -0.442429 -3.90883 -152.605 79.0325 149.131 -5.20786 54.9184 -6.23723 -1.07471e-006 -1.39585e-007 -6.78468e-007 4.42383 -2.37925 3.90074 150.39 79.9688 -147.795 6.80563 54.3938 5.03927 8.61731e-007 -9.86196e-008 -1.45631e-006 
0.492516 -6.67929 75.5276 -90.3963 -89.7304 89.3514 0.362098 -3.13522 -0.129133 0.718725 -6.27117 -0.238924 0.718725 -6.27119 -0.238923 7.98024e-006 14.9222 -5.23496e-006 1.40085e-006 -79.4765 7.06377e-007 30.6616 -38.7498 15.1066 -48.9412 -8.61685 -44.0869 -6.99751 -24.2572 -88.7702 -9.65488 -11.0712 22.8183 1.17574e-006 -9.42881e-007 -7.21879e-007 -7.10021e-007 -3.29436e-006 -1.9828e-008 1.17574e-006 -9.42881e-007 -7.21879e-007 1.17574e-006 -9.42881e-007 -7.21879e-007 -0.0145936 -9.01831e-005 -7.78313e-006 1.24069e-006 -3.24e-006 1.6949e-007 1.17574e-006 -9.42881e-007 -7.21879e-007 -0.0187822 -0.00118688 6.10098e-005 1.17579e-006 -9.42759e-007 -7.22046e-007 1.17574e-006 -9.42881e-007 -7.21879e-007 -0.0122507 -0.00324557 0.000676523 1.17575e-006 -9.42801e-007 -7.22015e-007 1.17574e-006 -9.42881e-007 -7.21879e-007 -7.10021e-007 -3.29436e-006 -1.9828e-008 1.17574e-006 -9.42881e-007 -7.21879e-007 -30.7874 -38.8545 -14.5977 48.9325 -8.5215 43.9734 7.0362 -24.263 89.2934 9.02104 -10.9377 -23.5042 6.36111e-015 -6.55989e-015 4.96962e-016 2.2854e-006 1.98762e-006 -1.39689e-006 4.27302e-006 -2.97781e-007 -2.1303e-006 6.36111e-015 -6.55989e-015 4.96962e-016 0.0149829 -8.48653e-005 3.22129e-007 4.27293e-006 -2.98059e-007 -2.13026e-006 6.36111e-015 -6.55989e-015 4.96962e-016 0.0189985 -0.00118975 -5.55524e-005 4.27289e-006 -2.98125e-007 -2.13029e-006 6.36111e-015 -6.55989e-015 4.96962e-016 0.0122521 -0.00324178 -0.000680597 4.27289e-006 -2.97964e-007 -2.13038e-006 6.36111e-015 -6.55989e-015 4.96962e-016 2.2854e-006 1.98762e-006 -1.39689e-006 4.27302e-006 -2.97781e-007 -2.1303e-006 -2.54154 -0.442429 -3.90883 -152.605 79.0325 149.131 -5.20786 54.9184 -6.23723 -1.07471e-006 -1.39585e-007 -6.78468e-007 4.42383 -2.37925 3.90074 150.39 79.9688 -147.795 6.80563 54.3938 5.03927 8.61731e-007 -9.86196e-008 -1.45631e-006 
